<svg xmlns="http://www.w3.org/2000/svg" width="26" height="16" viewBox="0 0 26 16">
  <path fill="#FFF" d="M11.6071429,16 L5.03517857,16 C2.25875,16 0,13.8377778 0,11.1795556 C0,9.33333333 1.25589286,7.41688889 2.98675,6.62266667 L3.25,6.50222222 L3.25,6.22222222 C3.25,6.16577778 3.25371429,6.10844444 3.25696429,6.05066667 L3.26114286,5.97955556 L3.25557143,5.88622222 C3.25278571,5.85022222 3.25,5.81422222 3.25,5.77777778 C3.25,4.06266667 4.70832143,2.66666667 6.5,2.66666667 C6.64346429,2.66666667 6.78507143,2.67866667 6.92575,2.69644444 C6.96196429,2.70088889 6.99817857,2.70666667 7.03392857,2.71244444 C7.15789286,2.732 7.28,2.75777778 7.40025,2.79111111 C7.4165,2.79555556 7.43321429,2.79866667 7.44946429,2.80311111 C7.58178571,2.84177778 7.71085714,2.89066667 7.83714286,2.94577778 C7.87010714,2.96 7.90214286,2.97555556 7.93464286,2.99066667 C8.04607143,3.04355556 8.15517857,3.10133333 8.26057143,3.16666667 C9.15525,3.72133333 9.75,4.68355556 9.75,5.77777778 C9.75,6.02355556 9.95753571,6.22222222 10.2142857,6.22222222 C10.4710357,6.22222222 10.6785714,6.02355556 10.6785714,5.77777778 C10.6785714,4.55377778 10.1000714,3.45822222 9.19285714,2.724 C10.5239643,1.05733333 12.7158571,0 14.8966071,0 C18.4925,0 21.4787857,2.72666667 21.7903214,6.17244444 C21.3158214,6.14044444 20.6054643,6.124 19.8946429,6.22755556 C19.6411429,6.26444444 19.4670357,6.49111111 19.5055714,6.73377778 C19.5403929,6.95377778 19.7381786,7.11155556 19.9638214,7.11155556 C19.9870357,7.11155556 20.0107143,7.10977778 20.0339286,7.10622222 C21.0678929,6.95644444 22.1455,7.09688889 22.2086429,7.10533333 C24.3703571,7.49866667 26,9.40488889 26,11.5431111 C26,14.0004444 23.9111786,16 21.3441429,16 L15.3214286,16 L11.6071429,16 Z"/>
</svg>
