<svg xmlns="http://www.w3.org/2000/svg" width="23" height="14" viewBox="0 0 23 14">
  <path fill="#FFF" d="M10.2678571,14 L4.45419643,14 C1.998125,14 0,12.1080556 0,9.78211111 C0,8.16666667 1.11098214,6.48977778 2.642125,5.79483333 L2.875,5.68944444 L2.875,5.44444444 C2.875,5.39505556 2.87828571,5.34488889 2.88116071,5.29433333 L2.88485714,5.23211111 L2.87992857,5.15044444 C2.87746429,5.11894444 2.875,5.08744444 2.875,5.05555556 C2.875,3.55483333 4.16505357,2.33333333 5.75,2.33333333 C5.87691071,2.33333333 6.00217857,2.34383333 6.126625,2.35938889 C6.15866071,2.36327778 6.19069643,2.36833333 6.22232143,2.37338889 C6.33198214,2.3905 6.44,2.41305556 6.546375,2.44222222 C6.56075,2.44611111 6.57553571,2.44883333 6.58991071,2.45272222 C6.70696429,2.48655556 6.82114286,2.52933333 6.93285714,2.57755556 C6.96201786,2.59 6.99035714,2.60361111 7.01910714,2.61683333 C7.11767857,2.66311111 7.21419643,2.71366667 7.30742857,2.77083333 C8.098875,3.25616667 8.625,4.09811111 8.625,5.05555556 C8.625,5.27061111 8.80858929,5.44444444 9.03571429,5.44444444 C9.26283929,5.44444444 9.44642857,5.27061111 9.44642857,5.05555556 C9.44642857,3.98455556 8.93467857,3.02594444 8.13214286,2.3835 C9.30966071,0.925166667 11.2486429,0 13.1777679,0 C16.35875,0 19.0004643,2.38583333 19.2760536,5.40088889 C18.8563036,5.37288889 18.2279107,5.3585 17.5991071,5.44911111 C17.3748571,5.48138889 17.2208393,5.67972222 17.2549286,5.89205556 C17.2857321,6.08455556 17.4606964,6.22261111 17.6603036,6.22261111 C17.6808393,6.22261111 17.7017857,6.22105556 17.7223214,6.21794444 C18.6369821,6.08688889 19.59025,6.20977778 19.6461071,6.21716667 C21.5583929,6.56133333 23,8.22927778 23,10.1002222 C23,12.2503889 21.1521964,14 18.8813571,14 L13.5535714,14 L10.2678571,14 Z"/>
</svg>
