<svg xmlns="http://www.w3.org/2000/svg" width="18" height="11" viewBox="0 0 18 11">
  <path fill="#FFF" d="M8.03571429,11 L3.48589286,11 C1.56375,11 0,9.51347222 0,7.68594444 C0,6.41666667 0.869464286,5.09911111 2.06775,4.55308333 L2.25,4.47027778 L2.25,4.27777778 C2.25,4.23897222 2.25257143,4.19955556 2.25482143,4.15983333 L2.25771429,4.11094444 L2.25385714,4.04677778 C2.25192857,4.02202778 2.25,3.99727778 2.25,3.97222222 C2.25,2.79308333 3.25960714,1.83333333 4.5,1.83333333 C4.59932143,1.83333333 4.69735714,1.84158333 4.79475,1.85380556 C4.81982143,1.85686111 4.84489286,1.86083333 4.86964286,1.86480556 C4.95546429,1.87825 5.04,1.89597222 5.12325,1.91888889 C5.1345,1.92194444 5.14607143,1.92408333 5.15732143,1.92713889 C5.24892857,1.95372222 5.33828571,1.98733333 5.42571429,2.02522222 C5.44853571,2.035 5.47071429,2.04569444 5.49321429,2.05608333 C5.57035714,2.09244444 5.64589286,2.13216667 5.71885714,2.17708333 C6.33825,2.55841667 6.75,3.21994444 6.75,3.97222222 C6.75,4.14119444 6.89367857,4.27777778 7.07142857,4.27777778 C7.24917857,4.27777778 7.39285714,4.14119444 7.39285714,3.97222222 C7.39285714,3.13072222 6.99235714,2.37752778 6.36428571,1.87275 C7.28582143,0.726916667 8.80328571,0 10.3130357,0 C12.8025,0 14.8699286,1.87458333 15.0856071,4.24355556 C14.7571071,4.22155556 14.2653214,4.21025 13.7732143,4.28144444 C13.5977143,4.30680556 13.4771786,4.46263889 13.5038571,4.62947222 C13.5279643,4.78072222 13.6648929,4.88919444 13.8211071,4.88919444 C13.8371786,4.88919444 13.8535714,4.88797222 13.8696429,4.88552778 C14.5854643,4.78255556 15.3315,4.87911111 15.3752143,4.88491667 C16.8717857,5.15533333 18,6.46586111 18,7.93588889 C18,9.62530556 16.5538929,11 14.7767143,11 L10.6071429,11 L8.03571429,11 Z"/>
</svg>
