<svg xmlns="http://www.w3.org/2000/svg" width="33" height="20" viewBox="0 0 33 20">
  <path fill="#FFF" d="M14.7321429,20 L6.39080357,20 C2.866875,20 0,17.2972222 0,13.9744444 C0,11.6666667 1.59401786,9.27111111 3.790875,8.27833333 L4.125,8.12777778 L4.125,7.77777778 C4.125,7.70722222 4.12971429,7.63555556 4.13383929,7.56333333 L4.13914286,7.47444444 L4.13207143,7.35777778 C4.12853571,7.31277778 4.125,7.26777778 4.125,7.22222222 C4.125,5.07833333 5.97594643,3.33333333 8.25,3.33333333 C8.43208929,3.33333333 8.61182143,3.34833333 8.790375,3.37055556 C8.83633929,3.37611111 8.88230357,3.38333333 8.92767857,3.39055556 C9.08501786,3.415 9.24,3.44722222 9.392625,3.48888889 C9.41325,3.49444444 9.43446429,3.49833333 9.45508929,3.50388889 C9.62303571,3.55222222 9.78685714,3.61333333 9.94714286,3.68222222 C9.98898214,3.7 10.0296429,3.71944444 10.0708929,3.73833333 C10.2123214,3.80444444 10.3508036,3.87666667 10.4845714,3.95833333 C11.620125,4.65166667 12.375,5.85444444 12.375,7.22222222 C12.375,7.52944444 12.6384107,7.77777778 12.9642857,7.77777778 C13.2901607,7.77777778 13.5535714,7.52944444 13.5535714,7.22222222 C13.5535714,5.69222222 12.8193214,4.32277778 11.6678571,3.405 C13.3573393,1.32166667 16.1393571,0 18.9072321,0 C23.47125,0 27.2615357,3.40833333 27.6569464,7.71555556 C27.0546964,7.67555556 26.1530893,7.655 25.2508929,7.78444444 C24.9291429,7.83055556 24.7081607,8.11388889 24.7570714,8.41722222 C24.8012679,8.69222222 25.0523036,8.88944444 25.3386964,8.88944444 C25.3681607,8.88944444 25.3982143,8.88722222 25.4276786,8.88277778 C26.7400179,8.69555556 28.10775,8.87111111 28.1878929,8.88166667 C30.9316071,9.37333333 33,11.7561111 33,14.4288889 C33,17.5005556 30.3488036,20 27.0906429,20 L19.4464286,20 L14.7321429,20 Z"/>
</svg>
