<svg xmlns="http://www.w3.org/2000/svg" width="29" height="18" viewBox="0 0 29 18">
  <path fill="#FFF" d="M12.9464286,18 L5.61616071,18 C2.519375,18 0,15.5675 0,12.577 C0,10.5 1.40080357,8.344 3.331375,7.4505 L3.625,7.315 L3.625,7 C3.625,6.9365 3.62914286,6.872 3.63276786,6.807 L3.63742857,6.727 L3.63121429,6.622 C3.62810714,6.5815 3.625,6.541 3.625,6.5 C3.625,4.5705 5.25158929,3 7.25,3 C7.41001786,3 7.56796429,3.0135 7.724875,3.0335 C7.76526786,3.0385 7.80566071,3.045 7.84553571,3.0515 C7.98380357,3.0735 8.12,3.1025 8.254125,3.14 C8.27225,3.145 8.29089286,3.1485 8.30901786,3.1535 C8.45660714,3.197 8.60057143,3.252 8.74142857,3.314 C8.77819643,3.33 8.81392857,3.3475 8.85017857,3.3645 C8.97446429,3.424 9.09616071,3.489 9.21371429,3.5625 C10.211625,4.1865 10.875,5.269 10.875,6.5 C10.875,6.7765 11.1064821,7 11.3928571,7 C11.6792321,7 11.9107143,6.7765 11.9107143,6.5 C11.9107143,5.123 11.2654643,3.8905 10.2535714,3.0645 C11.7382679,1.1895 14.1830714,0 16.6154464,0 C20.62625,0 23.9571071,3.0675 24.3045893,6.944 C23.7753393,6.908 22.9830179,6.8895 22.1901786,7.006 C21.9074286,7.0475 21.7132321,7.3025 21.7562143,7.5755 C21.7950536,7.823 22.0156607,8.0005 22.2673393,8.0005 C22.2932321,8.0005 22.3196429,7.9985 22.3455357,7.9945 C23.4988036,7.826 24.70075,7.984 24.7711786,7.9935 C27.1823214,8.436 29,10.5805 29,12.986 C29,15.7505 26.6701607,18 23.8069286,18 L17.0892857,18 L12.9464286,18 Z"/>
</svg>
