<?xml version="1.0" encoding="UTF-8"?>
<svg width="56px" height="26px" viewBox="0 0 56 26" version="1.1" xmlns="http://www.w3.org/2000/svg" xmlns:xlink="http://www.w3.org/1999/xlink">
    <!-- Generator: Sketch 47.1 (45422) - http://www.bohemiancoding.com/sketch -->
    <title>Path 5 Copy</title>
    <desc>Created with Sketch.</desc>
    <defs></defs>
    <g id="Page-1" stroke="none" stroke-width="1" fill="none" fill-rule="evenodd">
        <g id="iPhone-SE-Copy-2" transform="translate(-112.000000, -30.000000)" fill="#FFFFFF">
            <path d="M153.284672,53.3052812 C145.654501,56.8478603 138.364964,56.9159868 131.416058,53.5096608 C131.007299,53.9184199 123.649635,56.7797338 119.970803,52.0790039 C115.270073,53.1009017 112,49.6264491 112,48.4001717 C112,47.1738944 114.452555,43.4950623 119.766423,45.3344783 C118.948905,44.3125805 119.153285,38.5899528 128.145985,38.9987119 C127.941606,35.5242593 128.963504,30.2103907 136.525547,30.0060112 C141.56691,29.8697581 144.632603,32.0498068 145.722628,36.5461571 C150.355231,35.7593626 152.875912,37.913029 153.284672,43.0071561 C154.715328,42.0644053 165.956204,38.5899528 168,48.4001717 C167.79562,52.0790039 161.664234,54.5315586 158.80292,54.327179 C156.895377,54.190926 155.055961,53.8502934 153.284672,53.3052812 Z" id="Path-5-Copy"></path>
        </g>
    </g>
</svg>