<?xml version="1.0" encoding="UTF-8"?>
<svg width="49px" height="106px" viewBox="0 0 49 106" version="1.1" xmlns="http://www.w3.org/2000/svg" xmlns:xlink="http://www.w3.org/1999/xlink">
    <!-- Generator: Sketch 47.1 (45422) - http://www.bohemiancoding.com/sketch -->
    <title>man-thinking</title>
    <desc>Created with Sketch.</desc>
    <defs></defs>
    <g id="Page-1" stroke="none" stroke-width="1" fill="none" fill-rule="evenodd" opacity="0.800000012">
        <g id="Artboard-2" transform="translate(-136.000000, -35.000000)" fill-rule="nonzero" fill="#FCBF91">
            <g id="man-thinking" transform="translate(136.000000, 35.000000)">
                <g id="Group" transform="translate(34.000000, 4.000000)">
                    <g id="Shape">
                        <path d="M2.785,11.134 C2.565,11.134 2.375,11.007 2.363,10.851 C2.351,10.695 2.36,10.389 2.383,10.171 C2.383,10.171 2.602,8.113 3.688,6.81 C4.666,5.659 5.209,4.811 5.209,3.833 C5.209,2.725 4.514,1.985 3.146,1.964 C2.364,1.964 1.495,2.225 0.951,2.638 L0.573,1.643 C0.495,1.437 0.595,1.196 0.796,1.107 C0.796,1.107 2.386,0.4 3.537,0.4 C6.036,0.4 7.166,1.943 7.166,3.593 C7.166,5.071 6.341,6.136 5.298,7.374 C4.342,8.504 3.994,9.46 4.06,10.568 L4.066,10.734 C4.074,10.954 3.901,11.134 3.681,11.134 L2.785,11.134 L2.785,11.134 Z"></path>
                        <path d="M3.679,11.534 L2.785,11.534 C2.353,11.534 1.993,11.248 1.964,10.883 C1.95,10.7 1.96,10.369 1.985,10.129 C1.995,10.04 2.231,7.935 3.381,6.555 C4.286,5.489 4.809,4.703 4.809,3.834 C4.809,2.642 3.901,2.377 3.14,2.365 C2.445,2.365 1.66,2.603 1.192,2.958 L0.766,3.281 L0.198,1.786 C0.046,1.385 0.241,0.916 0.633,0.742 C0.701,0.71 2.314,0 3.537,0 C6.32,0 7.565,1.805 7.565,3.593 C7.565,5.176 6.715,6.312 5.603,7.632 C4.74,8.652 4.398,9.522 4.458,10.545 L4.465,10.719 C4.472,10.936 4.395,11.14 4.245,11.295 C4.096,11.449 3.895,11.534 3.679,11.534 Z M2.758,10.719 L3.665,10.734 L3.659,10.584 C3.587,9.346 3.985,8.306 4.992,7.116 C6.03,5.883 6.765,4.908 6.765,3.593 C6.765,2.242 5.917,0.8 3.536,0.8 C2.485,0.8 0.972,1.466 0.957,1.472 L1.16,2.038 C1.735,1.743 2.465,1.564 3.146,1.564 C4.667,1.588 5.609,2.457 5.609,3.833 C5.609,4.948 5.017,5.863 3.993,7.068 C2.999,8.261 2.783,10.193 2.781,10.213 C2.765,10.368 2.755,10.572 2.758,10.719 Z"></path>
                    </g>
                    <g transform="translate(1.000000, 12.000000)" id="Shape">
                        <path d="M0.907,2.175 C0.907,1.371 1.45,0.807 2.211,0.807 C2.971,0.807 3.493,1.371 3.493,2.175 C3.493,2.936 2.993,3.523 2.188,3.523 C1.428,3.522 0.907,2.936 0.907,2.175 Z"></path>
                        <path d="M2.188,3.922 C1.23,3.922 0.507,3.171 0.507,2.174 C0.507,1.15 1.224,0.406 2.211,0.406 C3.186,0.406 3.893,1.15 3.893,2.174 C3.894,3.188 3.177,3.922 2.188,3.922 Z M2.211,1.207 C1.67,1.207 1.307,1.596 1.307,2.175 C1.307,2.733 1.669,3.123 2.188,3.123 C2.738,3.123 3.093,2.751 3.093,2.175 C3.094,1.587 2.748,1.207 2.211,1.207 Z"></path>
                    </g>
                </g>
                <g id="Group">
                    <path d="M4.204,49.958 L18.786,46.198 C20.209,45.831 21.58,44.488 21.974,43.073 L25.637,29.96 C25.86,29.162 25.731,28.345 25.281,27.717 C24.832,27.088 24.099,26.701 23.27,26.654 L21.705,26.571 C20.193,26.571 18.724,27.65 18.287,29.08 L15.893,36.909 C15.674,37.624 14.813,38.435 14.085,38.612 L3.255,40.711 C1.748,41.077 0.534,42.577 0.491,44.125 C0.491,44.125 0.354,48.861 0.82,49.341 C1.266,49.799 1.884,50.292 4.204,49.958 Z" id="Shape"></path>
                    <path d="M13.908,34.769 C14.351,34.769 14.786,34.734 15.216,34.682 L17.045,28.7 C17.642,26.745 19.646,25.271 21.706,25.271 L23.34,25.355 C23.784,25.38 24.2,25.494 24.596,25.647 C24.686,25.087 24.745,24.517 24.745,23.932 C24.745,17.957 19.884,13.096 13.909,13.096 C7.934,13.096 3.073,17.957 3.073,23.932 C3.073,29.907 7.933,34.769 13.908,34.769 Z" id="Shape"></path>
                    <path d="M37.797,0 C31.824,0 26.964,5.366 26.964,11.961 C26.964,14.925 27.951,17.636 29.575,19.728 C29.491,19.795 29.409,19.868 29.348,19.964 L27.12,23.463 C26.824,23.929 26.961,24.547 27.427,24.844 C27.593,24.95 27.779,25 27.963,25 C28.294,25 28.617,24.836 28.808,24.537 L30.93,21.203 C32.801,22.9 35.193,23.921 37.797,23.921 C43.771,23.921 48.631,18.555 48.631,11.96 C48.631,5.365 43.771,0 37.797,0 Z M37.797,21.922 C32.926,21.922 28.964,17.454 28.964,11.961 C28.964,6.468 32.926,2 37.797,2 C42.668,2 46.631,6.468 46.631,11.961 C46.631,17.454 42.668,21.922 37.797,21.922 Z" id="Shape"></path>
                    <path d="M27.615,39.353 C27.012,38.513 25.953,37.851 24.872,37.533 L23.226,43.424 C22.708,45.279 20.978,46.976 19.111,47.458 L4.528,51.218 C3.835,51.325 3.335,51.368 2.857,51.368 C2.727,51.368 2.611,51.359 2.491,51.352 L2.491,70.436 L2.491,70.939 L2.491,100.105 C2.491,102.862 4.734,105.105 7.491,105.105 L7.844,105.105 C10.601,105.105 12.844,102.862 12.844,100.105 L12.844,73.938 L14.97,73.938 L14.97,100.104 C14.97,102.861 17.213,105.104 19.97,105.104 L20.322,105.104 C23.079,105.104 25.322,102.861 25.322,100.104 L25.322,70.938 L25.322,70.435 L25.322,70.315 L25.636,70.315 C27.085,70.315 28.777,69.326 29.489,68.063 L36.431,55.739 C37.158,54.45 37.051,52.499 36.188,51.298 L27.615,39.353 Z M28.669,55.539 L25.323,60.99 L25.323,48.58 L28.604,53.288 C29.006,53.866 29.038,54.939 28.669,55.539 Z" id="Shape"></path>
                </g>
            </g>
        </g>
    </g>
</svg>