<?xml version="1.0" encoding="UTF-8"?>
<svg width="22px" height="22px" viewBox="0 0 22 22" version="1.1" xmlns="http://www.w3.org/2000/svg" xmlns:xlink="http://www.w3.org/1999/xlink">
    <!-- Generator: Sketch 47.1 (45422) - http://www.bohemiancoding.com/sketch -->
    <title>search-active</title>
    <desc>Created with Sketch.</desc>
    <defs></defs>
    <g id="Page-1" stroke="none" stroke-width="1" fill="none" fill-rule="evenodd">
        <g id="Artboard-2" transform="translate(-83.000000, -451.000000)" fill-rule="nonzero" fill="#F8812A">
            <path d="M98.7232704,464.836478 L97.7295597,464.836478 L97.3773585,464.496855 C98.6100629,463.062893 99.3522013,461.201258 99.3522013,459.176101 C99.3522013,454.660377 95.6918239,451 91.1761006,451 C86.6603774,451 83,454.660377 83,459.176101 C83,463.691824 86.6603774,467.352201 91.1761006,467.352201 C93.2012579,467.352201 95.0628931,466.610063 96.4968553,465.377358 L96.836478,465.72956 L96.836478,466.72327 L103.125786,473 L105,471.125786 L98.7232704,464.836478 Z M91.1761006,464.836478 C88.0440252,464.836478 85.5157233,462.308176 85.5157233,459.176101 C85.5157233,456.044025 88.0440252,453.515723 91.1761006,453.515723 C94.3081761,453.515723 96.836478,456.044025 96.836478,459.176101 C96.836478,462.308176 94.3081761,464.836478 91.1761006,464.836478 Z" id="search-active"></path>
        </g>
    </g>
</svg>