<?xml version="1.0" encoding="UTF-8"?>
<svg width="22px" height="22px" viewBox="0 0 22 22" version="1.1" xmlns="http://www.w3.org/2000/svg" xmlns:xlink="http://www.w3.org/1999/xlink">
    <!-- Generator: Sketch 47.1 (45422) - http://www.bohemiancoding.com/sketch -->
    <title>search</title>
    <desc>Created with Sketch.</desc>
    <defs></defs>
    <g id="Page-1" stroke="none" stroke-width="1" fill="none" fill-rule="evenodd" opacity="0.47">
        <g id="Artboard-2" transform="translate(-38.000000, -451.000000)" fill-rule="nonzero" fill="#33312E">
            <path d="M53.7232704,464.836478 L52.7295597,464.836478 L52.3773585,464.496855 C53.6100629,463.062893 54.3522013,461.201258 54.3522013,459.176101 C54.3522013,454.660377 50.6918239,451 46.1761006,451 C41.6603774,451 38,454.660377 38,459.176101 C38,463.691824 41.6603774,467.352201 46.1761006,467.352201 C48.2012579,467.352201 50.0628931,466.610063 51.4968553,465.377358 L51.836478,465.72956 L51.836478,466.72327 L58.1257862,473 L60,471.125786 L53.7232704,464.836478 Z M46.1761006,464.836478 C43.0440252,464.836478 40.5157233,462.308176 40.5157233,459.176101 C40.5157233,456.044025 43.0440252,453.515723 46.1761006,453.515723 C49.3081761,453.515723 51.836478,456.044025 51.836478,459.176101 C51.836478,462.308176 49.3081761,464.836478 46.1761006,464.836478 Z" id="search"></path>
        </g>
    </g>
</svg>