<?xml version="1.0" encoding="UTF-8"?>
<svg width="56px" height="64px" viewBox="0 0 56 64" version="1.1" xmlns="http://www.w3.org/2000/svg" xmlns:xlink="http://www.w3.org/1999/xlink">
    <!-- Generator: Sketch 47.1 (45422) - http://www.bohemiancoding.com/sketch -->
    <title>swipe-left</title>
    <desc>Created with Sketch.</desc>
    <defs></defs>
    <g id="Page-1" stroke="none" stroke-width="1" fill="none" fill-rule="evenodd" opacity="0.799999952">
        <g id="Artboard-2" transform="translate(-132.000000, -187.000000)" fill="#F8812A">
            <g id="swipe-left" transform="translate(132.000000, 187.000000)">
                <path d="M30.4245224,31.9566825 C30.4245224,32.0394328 30.5064022,32.2032094 30.5064022,32.2842357 C30.5064022,32.4480123 30.5064022,32.6945391 30.5865762,32.8583157 L31.2347917,36.2993477 C31.3968456,37.2009808 32.2889948,37.8578111 33.2630239,37.6940345 C34.1551731,37.5302579 34.8033886,36.6286248 34.6413347,35.6442414 L33.9931192,32.2032094 C33.8310654,31.218826 34.4792809,30.2361665 35.4516041,30.07239 C36.587687,29.8258631 37.3177824,31.1377997 37.6418901,31.792906 C38.0478777,33.4323957 41.6966486,48.6756847 40.236458,56.2973292 C40.0744041,57.1989623 40.6424455,58.0988715 41.5345948,58.3453983 L41.8587025,58.3453983 C42.6689719,58.3453983 43.3990672,57.7713183 43.5611211,56.9524355 C45.3454195,48.182631 41.1286072,31.4653528 40.8846734,30.8085226 C40.8846734,30.7274963 40.8044994,30.644746 40.8044994,30.5637197 C39.5882425,27.6950437 37.2359025,26.3020809 34.8033886,26.7123843 C34.0732933,26.8761609 33.4250778,27.1209637 32.8570363,27.5312672 C32.4510487,26.7934106 31.8847131,26.2193306 31.2347917,25.7280009 C30.1004146,24.909118 28.7221038,24.6625912 27.3437929,24.909118 C26.5318177,25.0728946 25.8017224,25.4004477 25.1535069,25.8917775 C24.8293991,25.483198 24.4234115,25.0728946 23.9372499,24.7453414 C22.801167,23.9247346 21.4228561,23.6799317 20.0445453,23.9247346 C19.3963298,24.0074849 18.8282883,24.2522878 18.3421267,24.5815649 L17.1258697,18.270133 C16.881936,16.8771701 16.0716667,15.7307341 14.9355837,14.9101273 C13.8012066,14.0912444 12.4228957,13.8447176 11.0445849,14.0912444 C9.66456824,14.3360473 8.53019112,15.1566541 7.71992175,16.3030901 C6.90794656,17.4512501 6.66571866,18.8442129 6.90794656,20.2371758 L11.0445849,41.872923 L8.53019112,39.0042471 C7.6380419,37.8578111 6.33990508,37.2009808 4.96159424,37.1199545 C3.5832834,37.0372042 2.28685241,37.5302579 1.31282334,38.4301671 C-0.309421225,39.9886305 -0.471475099,42.8555825 1.06888962,45.6432321 C1.39470319,46.2155882 8.85429887,59.0005046 15.6656791,63.6724469 C15.9897868,63.8362234 16.3156004,64 16.6397081,64 C17.2060438,64 17.6939112,63.7551971 18.018019,63.2621434 C18.5860604,62.4432606 18.3421267,61.3778509 17.5318573,60.8865212 C11.4488667,56.7059086 4.31337875,44.4950722 3.989271,43.9209922 C3.34105551,42.6918059 3.1772958,41.3815933 3.5832834,40.8902636 C3.90739115,40.6437368 4.31337875,40.4799602 4.71936635,40.4799602 C5.12364812,40.4799602 5.52963572,40.7247631 5.85374346,41.1350665 L12.5030698,48.9204876 C12.9892314,49.4945675 13.8012066,49.6583441 14.5313019,49.330791 C15.2613973,49.0032378 15.585505,48.182631 15.4234512,47.4464984 L10.1524357,19.4993192 C10.0705558,19.0079895 10.1524357,18.5166598 10.3946636,18.1063564 C10.6385973,17.696053 11.0445849,17.4512501 11.5307465,17.3684998 C12.0169082,17.2874735 12.5030698,17.3684998 12.9090574,17.6150267 C13.315045,17.8615535 13.5572729,18.270133 13.6391527,18.7614627 L15.7475589,29.9086134 L17.2879236,38.1026139 C17.4499775,39.0042471 18.3421267,39.6593534 19.31445,39.4955768 C20.2065992,39.3318002 20.8565205,38.4301671 20.6944666,37.4475076 L19.1523961,29.2517831 C19.0722221,28.7604534 19.1523961,28.2691237 19.3963298,27.8588203 C19.6402635,27.4485169 20.0445453,27.203714 20.5307069,27.1209637 C21.0185744,27.0399374 21.504736,27.1209637 21.9107236,27.3674906 C22.3150054,27.6122935 22.5589391,28.0225969 22.6391131,28.5139266 L24.3432375,37.3647574 C24.5052914,38.1853642 25.2353867,38.7594442 26.0456561,38.7594442 L26.3697639,38.7594442 C27.2619131,38.5939437 27.9101286,37.6940345 27.7480747,36.7096511 L26.5318177,30.1534163 C26.4516437,29.6620866 26.5318177,29.1707568 26.7757515,28.7604534 C27.0179794,28.35015 27.423967,28.1053471 27.9101286,28.0225969 C28.397996,27.9415706 28.8841576,28.0225969 29.2884394,28.2691237 C29.694427,28.5139266 29.9383607,28.92423 30.0185348,29.4155597 L30.4245224,31.9566825 Z" id="Fill-1" opacity="0.648324275"></path>
                <path d="M53.1099465,20.6917051 C43.6651387,14.7406039 33.0404589,10.4914169 21.6285497,8.2240641 L22.415779,9.45198025 C23.0066869,10.396244 22.711233,11.6241602 21.7276823,12.1914649 C21.4322283,12.3799444 21.0376418,12.4751173 20.644999,12.4751173 C19.9569023,12.4751173 19.2668618,12.1914649 18.8742191,11.5308535 L15.3326591,6.24036371 C15.0372051,5.76823182 14.9380726,5.29609993 15.0372051,4.72879521 C15.1363377,4.25666331 15.5289805,3.78453142 15.9216232,3.50087906 L21.235907,0.29112866 C22.2194576,-0.276176062 23.4984623,0.0074762988 24.0874264,0.95174008 C24.6783343,1.89600386 24.3828804,3.12392 23.3993297,3.69122473 L22.2194576,4.35183615 C34.1231421,6.80766843 45.1404647,11.1520283 55.0770479,17.3867818 C56.0605986,17.9522204 56.2588637,19.1801366 55.6679558,20.1244003 C55.2733693,20.6917051 54.5852725,20.9753574 53.8971758,20.9753574 C53.7980432,21.0686641 53.4054005,20.8801846 53.1099465,20.6917051" id="Fill-1" opacity="0.648324275"></path>
            </g>
        </g>
    </g>
</svg>