<?xml version="1.0" encoding="UTF-8"?>
<svg width="46px" height="64px" viewBox="0 0 46 64" version="1.1" xmlns="http://www.w3.org/2000/svg" xmlns:xlink="http://www.w3.org/1999/xlink">
    <!-- Generator: Sketch 47.1 (45422) - http://www.bohemiancoding.com/sketch -->
    <title>tap</title>
    <desc>Created with Sketch.</desc>
    <defs></defs>
    <g id="Page-1" stroke="none" stroke-width="1" fill="none" fill-rule="evenodd">
        <g id="Artboard-2" transform="translate(-307.000000, -187.000000)" fill-rule="nonzero" fill="#FBAE75">
            <path d="M319.878049,225.634146 L321.673171,228.756098 L321.673171,207.760976 C321.673171,205.029268 323.936585,202.765854 326.668293,202.765854 C329.4,202.765854 331.663415,205.029268 331.663415,207.760976 L331.663415,213.84878 C332.209756,213.614634 332.756098,213.536585 333.380488,213.536585 C335.331707,213.536585 337.04878,214.629268 337.829268,216.268293 C338.531707,215.878049 339.312195,215.721951 340.092683,215.721951 C342.278049,215.721951 344.229268,217.204878 344.853659,219.156098 C345.478049,218.921951 346.180488,218.765854 346.882927,218.765854 C349.302439,218.765854 351.17561,220.560976 351.878049,223.44878 C351.878049,223.526829 351.878049,223.604878 351.878049,223.682927 C351.956098,224.385366 352.892683,240.697561 349.692683,248.658537 C349.458537,249.282927 348.834146,249.673171 348.209756,249.673171 C347.97561,249.673171 347.819512,249.595122 347.585366,249.517073 C346.726829,249.204878 346.336585,248.190244 346.64878,247.409756 C349.458537,240.541463 348.678049,225.634146 348.6,224.073171 C348.443902,223.370732 347.97561,222.121951 346.804878,222.121951 C345.868293,222.121951 345.087805,222.902439 345.087805,223.839024 L345.087805,227.117073 C345.087805,228.053659 344.385366,228.756098 343.44878,228.756098 C342.512195,228.756098 341.809756,228.053659 341.809756,227.117073 L341.809756,223.839024 C341.809756,223.682927 341.809756,223.44878 341.809756,223.292683 C341.809756,223.214634 341.809756,223.058537 341.809756,222.980488 L341.809756,220.795122 C341.809756,219.858537 341.029268,219.078049 340.092683,219.078049 C339.156098,219.078049 338.37561,219.858537 338.37561,220.795122 L338.37561,222.512195 L338.37561,227.117073 C338.37561,228.053659 337.673171,228.756098 336.736585,228.756098 C335.8,228.756098 335.097561,228.053659 335.097561,227.117073 L335.097561,222.512195 L335.097561,220.795122 L335.097561,218.609756 C335.097561,217.673171 334.317073,216.892683 333.380488,216.892683 C332.443902,216.892683 331.663415,217.673171 331.663415,218.609756 L331.663415,226.570732 C331.663415,227.507317 330.960976,228.209756 330.02439,228.209756 C329.087805,228.209756 328.385366,227.507317 328.385366,226.570732 L328.385366,207.760976 C328.385366,206.82439 327.604878,206.043902 326.668293,206.043902 C325.731707,206.043902 324.95122,206.82439 324.95122,207.760976 L324.95122,234.843902 C324.95122,235.62439 324.482927,236.24878 323.702439,236.404878 C323,236.560976 322.219512,236.24878 321.829268,235.62439 L316.912195,227.117073 C316.678049,226.64878 316.365854,226.414634 315.897561,226.258537 C315.507317,226.180488 315.117073,226.258537 314.804878,226.414634 C314.258537,226.726829 314.258537,227.97561 314.64878,229.302439 C314.882927,229.84878 319.409756,242.570732 324.404878,247.565854 C325.029268,248.190244 325.029268,249.204878 324.404878,249.907317 C324.092683,250.219512 323.702439,250.37561 323.234146,250.37561 C322.843902,250.37561 322.37561,250.219512 322.063415,249.907317 C316.443902,244.287805 311.760976,230.941463 311.526829,230.395122 C311.526829,230.395122 311.526829,230.395122 311.526829,230.395122 C310.590244,227.507317 311.214634,224.931707 313.009756,223.682927 C314.102439,222.980488 315.429268,222.746341 316.678049,223.058537 C318.082927,223.604878 319.17561,224.385366 319.878049,225.634146 Z M326.278049,199.487805 C327.214634,199.487805 327.917073,198.785366 327.917073,197.84878 L327.917073,189.107317 C327.917073,188.170732 327.214634,187.468293 326.278049,187.468293 C325.341463,187.468293 324.639024,188.170732 324.639024,189.107317 L324.639024,197.84878 C324.639024,198.707317 325.341463,199.487805 326.278049,199.487805 Z M334.785366,206.590244 C334.785366,207.526829 335.487805,208.229268 336.42439,208.229268 L345.165854,208.229268 C346.102439,208.229268 346.804878,207.526829 346.804878,206.590244 C346.804878,205.653659 346.102439,204.95122 345.165854,204.95122 L336.42439,204.95122 C335.487805,204.95122 334.785366,205.731707 334.785366,206.590244 Z M333.302439,201.282927 C333.692683,201.282927 334.160976,201.126829 334.473171,200.814634 L340.639024,194.64878 C341.263415,194.02439 341.263415,193.009756 340.639024,192.307317 C340.014634,191.682927 338.921951,191.682927 338.297561,192.307317 L332.131707,198.473171 C331.507317,199.097561 331.507317,200.112195 332.131707,200.814634 C332.443902,201.126829 332.912195,201.282927 333.302439,201.282927 Z M308.717073,209.4 L317.458537,209.4 C318.395122,209.4 319.097561,208.697561 319.097561,207.760976 C319.097561,206.82439 318.395122,206.121951 317.458537,206.121951 L308.717073,206.121951 C307.780488,206.121951 307.078049,206.82439 307.078049,207.760976 C307.078049,208.697561 307.780488,209.4 308.717073,209.4 Z M318.160976,201.829268 C318.473171,202.141463 318.863415,202.297561 319.331707,202.297561 C319.8,202.297561 320.190244,202.141463 320.502439,201.829268 C321.126829,201.204878 321.126829,200.190244 320.502439,199.487805 L314.336585,193.321951 C313.712195,192.697561 312.619512,192.697561 311.995122,193.321951 C311.370732,193.946341 311.370732,194.960976 311.995122,195.663415 L318.160976,201.829268 Z" id="tap"></path>
        </g>
    </g>
</svg>