<?xml version="1.0" encoding="UTF-8"?>
<svg width="17px" height="17px" viewBox="0 0 17 17" version="1.1" xmlns="http://www.w3.org/2000/svg" xmlns:xlink="http://www.w3.org/1999/xlink">
    <!-- Generator: Sketch 47.1 (45422) - http://www.bohemiancoding.com/sketch -->
    <title>web</title>
    <desc>Created with Sketch.</desc>
    <defs></defs>
    <g id="Page-1" stroke="none" stroke-width="1" fill="none" fill-rule="evenodd">
        <g id="Artboard-2" transform="translate(-75.000000, -624.000000)" fill-rule="nonzero" fill="#FFFFFF">
            <path d="M83.5,624 C78.808,624 75,627.808 75,632.5 C75,637.192 78.808,641 83.5,641 C88.192,641 92,637.192 92,632.5 C92,627.808 88.192,624 83.5,624 Z M82.65,639.2405 C79.2925,638.824 76.7,635.968 76.7,632.5 C76.7,631.973 76.768,631.4715 76.8785,630.9785 L80.95,635.05 L80.95,635.9 C80.95,636.835 81.715,637.6 82.65,637.6 L82.65,639.2405 Z M88.515,637.0815 C88.294,636.393 87.665,635.9 86.9,635.9 L86.05,635.9 L86.05,633.35 C86.05,632.8825 85.6675,632.5 85.2,632.5 L80.1,632.5 L80.1,630.8 L81.8,630.8 C82.2675,630.8 82.65,630.4175 82.65,629.95 L82.65,628.25 L84.35,628.25 C85.285,628.25 86.05,627.485 86.05,626.55 L86.05,626.2015 C88.5405,627.213 90.3,629.6525 90.3,632.5 C90.3,634.268 89.62,635.8745 88.515,637.0815 Z" id="web"></path>
        </g>
    </g>
</svg>