<?xml version="1.0" encoding="UTF-8"?>
<svg width="46px" height="32px" viewBox="0 0 46 32" version="1.1" xmlns="http://www.w3.org/2000/svg" xmlns:xlink="http://www.w3.org/1999/xlink">
    <g id="Page-1" stroke="none" stroke-width="1" fill="none" fill-rule="evenodd">
        <g id="iPhone-SE-Copy-2" transform="translate(-105.000000, -91.000000)" fill="#FFFFFF">
            <path d="M114.604525,122.565985 C110.688975,122.006621 107.954305,119.986694 106.400516,116.506206 C105.934379,115.29425 103.603695,110.632881 108.917655,104.106965 C108.917655,104.106965 104.815651,93.5722717 116.18939,91.5212695 C116.469072,91.5212695 124.579854,90.7754505 125.232445,100.284643 C125.232445,100.284643 127.096993,97.2081393 132.50418,97.6742762 C132.50418,97.6742762 138.097823,98.5133225 139.123324,106.06474 C139.123324,106.06474 146.301832,103.547601 150.124154,111.192245 C150.497064,113.895839 152.081929,120.048846 143.784693,122.565985 C141.982297,122.565985 132.255574,122.565985 114.604525,122.565985 Z" id="Path-3"></path>
        </g>
    </g>
</svg>
