<?xml version="1.0" encoding="UTF-8"?>
<svg width="22px" height="15px" viewBox="0 0 22 15" version="1.1" xmlns="http://www.w3.org/2000/svg" xmlns:xlink="http://www.w3.org/1999/xlink">
    <!-- Generator: Sketch 47.1 (45422) - http://www.bohemiancoding.com/sketch -->
    <title>Path 3 Copy</title>
    <desc>Created with Sketch.</desc>
    <defs></defs>
    <g id="Page-1" stroke="none" stroke-width="1" fill="none" fill-rule="evenodd">
        <g id="iPhone-SE-Copy-2" transform="translate(-214.000000, -104.000000)" fill="#FFFFFF">
            <path d="M218.92516,118.073542 C217.150902,117.820077 215.911738,116.904785 215.207667,115.327667 C214.996446,114.778492 213.940341,112.666281 216.348262,109.709185 C216.348262,109.709185 214.489516,104.935587 219.643312,104.006213 C219.770044,104.006213 223.445292,103.66826 223.741002,107.977171 C223.741002,107.977171 224.585887,106.583111 227.036052,106.794333 C227.036052,106.794333 229.570706,107.174531 230.035392,110.596313 C230.035392,110.596313 233.288198,109.455719 235.020211,112.919746 C235.189188,114.144829 235.90734,116.932948 232.147604,118.073542 C231.330882,118.073542 226.923401,118.073542 218.92516,118.073542 Z" id="Path-3-Copy" transform="translate(224.990980, 111.036771) scale(-1, 1) translate(-224.990980, -111.036771) "></path>
        </g>
    </g>
</svg>