<?xml version="1.0" encoding="UTF-8"?>
<svg width="30px" height="18px" viewBox="0 0 30 18" version="1.1" xmlns="http://www.w3.org/2000/svg" xmlns:xlink="http://www.w3.org/1999/xlink">
    <g id="Page-1" stroke="none" stroke-width="1" fill="none" fill-rule="evenodd">
        <g id="iPhone-SE-Copy-2" transform="translate(-208.000000, -47.000000)" fill="#FFFFFF">
            <path d="M211.352941,64.5098039 C209.366013,64.2614379 208.248366,63.1437908 208,61.1568627 C208,59.6666667 208.372549,57.8039216 209.676471,57.4313725 C209.117647,56.3137255 209.490196,53.7058824 210.980392,53.3333333 C210.980392,53.3333333 212.843137,52.5882353 213.960784,52.9607843 C213.960784,52.5882353 215.078431,47 220.294118,47 C223.771242,47 225.882353,48.2418301 226.627451,50.7254902 C229.856209,50.2287582 231.594771,51.4705882 231.843137,54.4509804 C232.960784,54.4509804 237.431373,55.9411765 237.058824,60.4117647 C236.810458,63.3921569 235.071895,64.7581699 231.843137,64.5098039 L211.352941,64.5098039 Z" id="Path-4"></path>
        </g>
    </g>
</svg>
